Coordinates
version=1
nRows=11
nColumns=42
inDegrees=yes

Units are S.I. units (second, meters, Newtons, ...)
If the header above contains a line with 'inDegrees', this indicates whether rotational values are in degrees (yes) or radians (no).

endheader
time	pelvis_tilt	pelvis_list	pelvis_rotation	pelvis_tx	pelvis_ty	pelvis_tz	hip_flexion_r	hip_adduction_r	hip_rotation_r	knee_angle_r	knee_adduction_r	knee_angle_r_beta	ankle_angle_r	subtalar_angle_r	mtp_angle_r	hip_flexion_l	hip_adduction_l	hip_rotation_l	knee_angle_l	knee_adduction_l	knee_angle_l_beta	ankle_angle_l	subtalar_angle_l	mtp_angle_l	lumbar_extension	lumbar_bending	lumbar_rotation	arm_flex_r	arm_add_r	arm_rot_r	elbow_flex_r	pro_sup_r	wrist_flex_r	wrist_dev_r	arm_flex_l	arm_add_l	arm_rot_l	elbow_flex_l	pro_sup_l	wrist_flex_l	wrist_dev_l
      2.87000000	     27.51802547	     -1.24211067	     -7.10543041	      0.58303877	      0.94287708	     -0.02317348	      7.54867284	      1.24780184	    -21.35313210	     36.98396816	    -18.15320693	      0.64549201	     12.59876670	     23.47109361	     -7.50373468	    -23.27066955	     10.65810314	     -1.82754996	     26.66094628	      0.07330050	      0.46532129	     18.60136058	    -17.99147494	     -7.50373468	    -39.23262384	     -4.63744501	      3.62741647	      4.50008647	    -10.93463069	    -25.83566807	     24.37296449	     90.00000001	      0.00000000	      0.00000000	      0.00878272	    -18.03853133	     15.19162014	     61.49440393	     90.00000001	      0.00000000	      0.00000000
      2.88000000	     27.45556009	     -1.26683238	     -6.97199782	      0.58675148	      0.94251855	     -0.02375780	      7.33150458	      1.23846816	    -21.30698941	     36.85291539	    -17.82589778	      0.64320471	     12.74821104	     23.39084628	     -7.50371886	    -23.45645885	     10.69297707	     -1.69066427	     26.69542257	     -0.04993548	      0.46592302	     18.83146402	    -18.08002367	     -7.50371886	    -39.21899583	     -4.44664603	      3.55003038	      4.42360178	    -10.96913114	    -25.86381277	     24.34341660	     90.00000001	      0.00000000	      0.00000000	      0.03162424	    -17.86564432	     15.24764727	     61.52155966	     90.00000001	      0.00000000	      0.00000000
      2.89000000	     27.40549475	     -1.30548009	     -6.89329134	      0.59048505	      0.94215114	     -0.02415714	      7.06867094	      1.29562646	    -21.12050122	     36.68696002	    -17.53499109	      0.64030824	     12.96999447	     23.25208594	     -7.50369581	    -23.68254455	     10.69265061	     -1.48443756	     26.69300270	     -0.02973149	      0.46588078	     19.11026046	    -18.13448323	     -7.50369581	    -39.21648537	     -4.29291609	      3.50792119	      4.39719738	    -10.99247132	    -25.89936934	     24.32507707	     90.00000001	      0.00000000	      0.00000000	      0.08717492	    -17.78686904	     15.28439717	     61.54542721	     90.00000001	      0.00000000	      0.00000000
      2.90000000	     27.26649548	     -1.28478257	     -6.90282219	      0.59427680	      0.94155202	     -0.02440056	      6.99501659	      1.29892639	    -21.11893890	     36.65507355	    -17.46102236	      0.63975172	     12.99259343	     23.22981854	     -7.50369295	    -23.77752142	     10.74903458	     -1.46694496	     26.71598567	     -0.01307645	      0.46628191	     19.13996157	    -18.12568306	     -7.50369295	    -39.08348205	     -4.22830293	      3.47157406	      4.38949865	    -10.99029491	    -25.90403677	     24.32355968	     90.00000001	      0.00000000	      0.00000000	      0.12660640	    -17.75513899	     15.29366446	     61.56558925	     90.00000001	      0.00000000	      0.00000000
      2.91000000	     27.14584723	     -1.27168896	     -6.78932478	      0.59810727	      0.94108146	     -0.02489110	      6.75873809	      1.22951218	    -21.11186858	     36.40722417	    -17.10952917	      0.63542593	     13.11953352	     23.14154573	     -7.50368132	    -23.91235162	     10.80321327	     -1.32123765	     26.72306153	     -0.08841490	      0.46640541	     19.33916814	    -18.16367358	     -7.50368132	    -39.01355237	     -4.09166515	      3.40029386	      4.31717924	    -11.00587783	    -25.93155769	     24.29629141	     90.00000001	      0.00000000	      0.00000000	      0.19078306	    -17.58698788	     15.35660835	     61.63045466	     90.00000001	      0.00000000	      0.00000000
      2.92000000	     27.08240248	     -1.27706539	     -6.74162862	      0.60195612	      0.94061662	     -0.02520156	      6.45069187	      1.24447311	    -21.06218355	     36.15236461	    -16.93449413	      0.63097779	     13.24834561	     23.05564546	     -7.50366429	    -24.13517272	     10.85856210	     -1.15513841	     26.69446232	     -0.11102379	      0.46590626	     19.61185791	    -18.19699281	     -7.50366429	    -38.99789428	     -3.98884751	      3.37857647	      4.29429967	    -11.02268363	    -25.96453887	     24.28215738	     90.00000001	      0.00000000	      0.00000000	      0.28121610	    -17.51754712	     15.40484929	     61.69767753	     90.00000001	      0.00000000	      0.00000000
      2.93000000	     26.96935768	     -1.26534624	     -6.73022161	      0.60585646	      0.94006844	     -0.02545355	      6.22148640	      1.22963000	    -21.13067083	     35.93771550	    -16.85103379	      0.62723146	     13.30808265	     23.01903689	     -7.50364893	    -24.31416557	     10.91423683	     -1.08321863	     26.63286867	     -0.10734832	      0.46483125	     19.81564098	    -18.20103389	     -7.50364893	    -38.92907525	     -3.91609000	      3.35984433	      4.27668150	    -11.02373458	    -25.99313840	     24.27099140	     90.00000001	      0.00000000	      0.00000000	      0.34702896	    -17.45014388	     15.45969301	     61.76302566	     90.00000001	      0.00000000	      0.00000000
      2.94000000	     26.88316482	     -1.25709116	     -6.71777664	      0.60980856	      0.93950217	     -0.02563423	      5.95050477	      1.23018880	    -21.30991053	     35.70328507	    -16.89174580	      0.62313988	     13.32698394	     23.07100216	     -7.50362836	    -24.53653566	     10.98201582	     -1.00707803	     26.55872188	     -0.14840517	      0.46353714	     20.05039905	    -18.19341710	     -7.50362836	    -38.88422968	     -3.86074760	      3.35630214	      4.25895635	    -11.02799991	    -26.03200336	     24.25617290	     90.00000001	      0.00000000	      0.00000000	      0.42374711	    -17.41208232	     15.52796923	     61.84259206	     90.00000001	      0.00000000	      0.00000000
      2.95000000	     26.83409980	     -1.26285768	     -6.71475026	      0.61385377	      0.93895295	     -0.02575617	      5.63883060	      1.23338115	    -21.70830318	     35.44293258	    -17.08814201	      0.61859587	     13.28042311	     23.37319028	     -7.50359287	    -24.83421675	     11.03744972	     -0.95034034	     26.43574718	     -0.18671998	      0.46139083	     20.34048844	    -18.16439135	     -7.50359287	    -38.87877578	     -3.79071262	      3.36414984	      4.23705466	    -11.02591380	    -26.09775470	     24.23276636	     90.00000001	      0.00000000	      0.00000000	      0.49964434	    -17.41275772	     15.64366196	     61.96012095	     90.00000001	      0.00000000	      0.00000000
      2.96000000	     26.77803701	     -1.19099023	     -6.70905888	      0.61806672	      0.93828612	     -0.02587445	      5.42476001	      1.01419931	    -23.15728735	     35.11362109	    -17.75415288	      0.61284830	     13.35823948	     26.02813903	     -7.50333249	    -25.11298932	     11.15039622	     -0.90529693	     26.32596183	     -0.18972976	      0.45947471	     20.50753225	    -18.10756342	     -7.50333249	    -38.83805930	     -3.78751136	      3.32232215	      4.26525392	    -10.96698041	    -26.54831146	     24.17298664	     90.00000001	      0.00000000	      0.00000000	      0.53078825	    -17.60325142	     16.24517628	     62.32523382	     90.00000001	      0.00000000	      0.00000000
      2.97000000	     26.62635116	     -1.13405607	     -6.75890029	      0.62214612	      0.93756764	     -0.02588974	      5.21957641	      0.96405076	    -23.24673916	     35.00863776	    -17.83321080	      0.61101600	     13.34660994	     26.03413071	     -7.50331918	    -25.23915471	     11.27058790	     -0.96575675	     26.29283126	     -0.25644281	      0.45889648	     20.62281660	    -18.12001830	     -7.50331918	    -38.72659972	     -3.80304257	      3.31476270	      4.27279391	    -10.94132839	    -26.56353343	     24.16760614	     90.00000001	      0.00000000	      0.00000000	      0.62373852	    -17.54133013	     16.25925808	     62.36740152	     90.00000001	      0.00000000	      0.00000000
